<svg width="116" height="114" viewBox="0 0 116 114" fill="none" xmlns="http://www.w3.org/2000/svg">
<path d="M50.5056 101.952L48.4732 113.008L44.3575 112.261C43.5446 112.111 42.9348 111.862 42.4267 111.514C41.9694 111.165 41.6138 110.767 41.4613 110.269C41.2581 109.771 41.2581 109.273 41.3597 108.725C41.4613 108.277 41.6138 107.878 41.817 107.629C42.0203 107.38 42.3251 107.131 42.63 106.982C42.9348 106.832 43.2905 106.783 43.6462 106.733V106.633C43.2905 106.534 42.9348 106.384 42.63 106.085C42.3251 105.787 42.0711 105.438 41.9186 104.99C41.7662 104.542 41.7154 104.044 41.817 103.496C41.9186 102.948 42.1727 102.45 42.4775 102.051C42.8332 101.653 43.2905 101.354 43.9002 101.205C44.51 101.055 45.2721 101.055 46.1359 101.205L50.5056 101.952ZM47.6602 107.928L45.3737 107.53C44.9673 107.48 44.6116 107.48 44.3067 107.579C44.0019 107.679 43.697 107.828 43.4429 108.077C43.1889 108.326 43.0873 108.575 42.9856 108.974C42.884 109.422 42.9856 109.82 43.2905 110.219C43.5954 110.617 44.0527 110.817 44.7132 110.966L47.0505 111.364L47.6602 107.928ZM48.524 103.047L46.0851 102.599C45.2721 102.45 44.6624 102.5 44.2559 102.749C43.8494 102.998 43.5954 103.346 43.4938 103.795C43.4429 104.143 43.4429 104.492 43.5954 104.791C43.697 105.089 43.951 105.388 44.2559 105.637C44.5608 105.886 44.9164 106.036 45.3737 106.085L47.9142 106.534L48.524 103.047Z" fill="#F58A07"/>
<path d="M36.7359 98.167C37.4981 98.4658 38.1078 98.914 38.5143 99.5116C38.9208 100.059 39.1748 100.707 39.2256 101.454C39.2764 102.201 39.124 102.948 38.7683 103.745C38.4127 104.542 37.9554 105.189 37.3965 105.637C36.8375 106.135 36.177 106.434 35.5165 106.534C34.8051 106.633 34.0938 106.534 33.3824 106.235C32.9251 106.036 32.5186 105.787 32.163 105.488C31.8073 105.189 31.5533 104.791 31.35 104.342C31.1468 103.894 31.0451 103.396 31.096 102.799C31.096 102.201 31.2992 101.603 31.6041 100.906L31.8581 100.358L38.1586 102.948L37.6505 104.093L32.8743 102.101C32.7219 102.5 32.6203 102.898 32.6711 103.247C32.7219 103.645 32.8235 103.944 33.0268 104.243C33.23 104.542 33.5349 104.791 33.9413 104.94C34.3986 105.139 34.8051 105.189 35.2116 105.089C35.6181 105.04 35.9738 104.84 36.2786 104.591C36.5835 104.342 36.8375 103.994 36.99 103.645L37.3965 102.749C37.5997 102.251 37.7013 101.753 37.7013 101.304C37.6505 100.856 37.5489 100.458 37.2948 100.159C37.0408 99.8602 36.6851 99.5614 36.2278 99.3622C35.923 99.2626 35.6689 99.163 35.364 99.163C35.11 99.163 34.8051 99.163 34.6019 99.2626C34.3986 99.3622 34.1446 99.5116 33.9413 99.7108L32.5695 98.8642C32.8743 98.5156 33.23 98.2168 33.6873 98.0176C34.1446 97.8184 34.6019 97.7187 35.11 97.7686C35.6181 97.8184 36.177 97.918 36.7359 98.167Z" fill="#F58A07"/>
<path d="M22.2549 97.3697L23.6776 98.0171C23.6268 98.2163 23.576 98.4156 23.6268 98.6148C23.6268 98.814 23.7284 99.063 23.8301 99.2622C23.9825 99.4614 24.1857 99.7104 24.4398 99.8598C24.8463 100.109 25.2019 100.258 25.6084 100.258C25.9641 100.258 26.269 100.109 26.4722 99.8598C26.6246 99.6108 26.6754 99.3618 26.6246 99.1128C26.5738 98.8638 26.3706 98.565 26.0149 98.2163L25.0495 97.2203C24.4906 96.6227 24.1857 96.0749 24.0841 95.5769C23.9825 95.0789 24.0841 94.531 24.4398 94.033C24.7446 93.6346 25.1003 93.3358 25.6084 93.1864C26.0657 93.037 26.5738 92.9872 27.1835 93.1366C27.7425 93.2362 28.3014 93.4852 28.9111 93.8836C29.7241 94.4314 30.2322 95.0291 30.4862 95.6765C30.7403 96.3239 30.7403 97.0211 30.3846 97.7183L28.9111 97.0211C29.0635 96.6227 29.0635 96.2741 28.9619 95.9255C28.8095 95.5769 28.5554 95.2781 28.1489 94.9792C27.6916 94.6804 27.2852 94.531 26.8787 94.531C26.4722 94.531 26.1673 94.6804 26.0149 94.9295C25.8625 95.1287 25.8117 95.3777 25.8625 95.6267C25.9133 95.8757 26.1165 96.1745 26.3706 96.4733L27.3868 97.5191C27.9457 98.1167 28.2506 98.6646 28.3522 99.2124C28.4538 99.7602 28.3014 100.258 27.9457 100.756C27.6408 101.155 27.2852 101.453 26.8279 101.603C26.3706 101.752 25.8625 101.752 25.3544 101.653C24.8463 101.553 24.2873 101.304 23.7792 100.955C23.0171 100.457 22.509 99.8598 22.3057 99.2622C22.0009 98.6646 22.0009 98.0171 22.2549 97.3697Z" fill="#F58A07"/>
<path d="M16.1579 97.5189L14.9385 96.3735L20.5784 90.6463C20.7817 90.3973 20.9341 90.1981 20.9849 90.0487C21.0357 89.8495 21.0357 89.7001 20.9341 89.5507C20.8833 89.4013 20.7817 89.2519 20.6292 89.1523C20.5276 89.0526 20.426 89.0029 20.3752 88.953C20.3244 88.9032 20.2227 88.8534 20.1719 88.8036L20.9341 87.6084C21.0357 87.6582 21.1373 87.708 21.2898 87.8076C21.4422 87.9072 21.6454 88.0566 21.7979 88.206C22.1027 88.5048 22.3568 88.8534 22.5092 89.2021C22.6616 89.5507 22.7125 89.9491 22.6616 90.3475C22.6108 90.7459 22.3568 91.1443 22.0011 91.4929L16.1579 97.5189ZM15.0909 93.734L16.0055 92.7878L19.359 95.9751L18.4444 96.9213L15.0909 93.734Z" fill="#F58A07"/>
<path d="M15.3449 79.8391C15.5989 80.2873 15.7514 80.7854 15.8022 81.2336C15.853 81.7316 15.7514 82.13 15.5481 82.5284C15.3449 82.9268 14.9892 83.2754 14.4811 83.5742C14.0746 83.8233 13.6681 83.9229 13.3125 83.9229C12.9568 83.9229 12.6011 83.8233 12.2963 83.624C11.9914 83.4248 11.6865 83.2256 11.4325 82.9268C11.1784 82.628 10.8736 82.3292 10.6703 82.0304C10.3655 81.632 10.1114 81.2834 9.90817 81.0344C9.70493 80.7854 9.5525 80.636 9.40007 80.5363C9.24764 80.4367 9.09521 80.4866 8.89196 80.5862H8.84115C8.43467 80.8352 8.18062 81.134 8.079 81.4826C7.97738 81.8312 8.079 82.2794 8.33305 82.7276C8.63791 83.2256 8.94277 83.5244 9.29845 83.6739C9.65412 83.8233 10.0098 83.8731 10.3655 83.8233L10.8228 85.3173C10.2638 85.4169 9.75574 85.3671 9.29845 85.2177C8.84115 85.0683 8.43467 84.8193 8.079 84.5205C7.72333 84.1719 7.41846 83.8233 7.16441 83.375C7.01198 83.0762 6.85955 82.7774 6.70712 82.379C6.6055 82.0304 6.55469 81.632 6.55469 81.2336C6.55469 80.8352 6.70712 80.4367 6.91036 80.0881C7.1136 79.7395 7.52008 79.3909 8.079 79.0423L13.0076 76.2534L13.8206 77.6479L12.8044 78.2455L12.8552 78.2953C13.1092 78.2953 13.3633 78.2953 13.6681 78.3949C13.973 78.4945 14.2271 78.6439 14.5319 78.8431C14.8368 79.1419 15.0908 79.4407 15.3449 79.8391ZM13.973 80.1877C13.7189 79.7893 13.4649 79.4905 13.16 79.2913C12.8552 79.0921 12.4995 78.9925 12.1438 78.9925C11.7882 78.9925 11.4833 79.0921 11.1784 79.2415L10.213 79.7893C10.3147 79.7893 10.4163 79.8889 10.5179 79.9885C10.6195 80.0881 10.7719 80.2375 10.9244 80.4367C11.0768 80.5862 11.1784 80.7854 11.3309 80.9348C11.4325 81.0842 11.5849 81.2336 11.6357 81.3332C11.839 81.5822 12.0422 81.8312 12.2454 81.9806C12.4487 82.1798 12.7027 82.2794 12.906 82.3292C13.16 82.379 13.4141 82.3292 13.6681 82.1798C14.0238 81.9806 14.2271 81.6818 14.2271 81.3332C14.3287 80.9846 14.2271 80.5862 13.973 80.1877Z" fill="#F58A07"/>
<path d="M14.0746 69.5305C14.2779 70.1779 14.3795 70.7257 14.3287 71.2735C14.3287 71.7715 14.2271 72.2197 14.0238 72.6182C13.8206 73.0166 13.6173 73.3154 13.3125 73.5644L12.2963 72.4189C12.3979 72.2695 12.5503 72.1201 12.6519 71.8711C12.7536 71.6719 12.8552 71.3731 12.906 71.0743C12.9568 70.7755 12.906 70.3771 12.7536 69.9787C12.5503 69.3811 12.2455 68.9328 11.839 68.634C11.4325 68.3352 10.8736 68.2854 10.2639 68.4846L8.63792 68.9826L8.68873 69.0822C8.89197 69.132 9.14602 69.1818 9.40007 69.2815C9.65413 69.3811 9.90818 69.5803 10.213 69.8293C10.5179 70.0783 10.6703 70.4767 10.8228 70.9747C11.026 71.6221 11.0768 72.2197 10.9244 72.8174C10.772 73.415 10.4671 73.9628 9.95899 74.4608C9.45089 74.9588 8.79035 75.3074 7.92657 75.6062C7.0628 75.8553 6.24983 75.9549 5.53849 75.8553C4.82714 75.7557 4.21742 75.5066 3.70932 75.1082C3.20121 74.7098 2.84554 74.162 2.6423 73.5146C2.48987 73.0166 2.43906 72.5684 2.48987 72.2197C2.54068 71.8711 2.69311 71.5723 2.84554 71.3233C2.99797 71.0743 3.1504 70.8751 3.30283 70.7257L3.25202 70.6261L1.93095 71.0245L1.42285 69.4807L9.80656 66.891C10.5179 66.6918 11.1276 66.642 11.6865 66.8412C12.2455 67.0404 12.7027 67.3392 13.1092 67.8372C13.5157 68.3352 13.8714 68.8332 14.0746 69.5305ZM9.40007 70.9747C9.24764 70.5265 9.0444 70.1779 8.68873 69.9289C8.33306 69.6799 7.97739 69.5305 7.52009 69.5305C7.0628 69.4807 6.5547 69.5803 5.99578 69.7297C5.43687 69.8791 4.97958 70.1281 4.6239 70.4269C4.26823 70.7257 4.01418 71.0743 3.86175 71.4229C3.70932 71.8213 3.70932 72.2197 3.86175 72.668C4.01418 73.1162 4.26823 73.5146 4.6239 73.7138C4.97958 73.9628 5.38606 74.0624 5.84335 74.1122C6.30064 74.162 6.80875 74.0624 7.31685 73.913C7.87576 73.7636 8.28225 73.5146 8.63792 73.2158C8.99359 72.917 9.24764 72.5684 9.34926 72.2197C9.55251 71.8711 9.55251 71.4727 9.40007 70.9747Z" fill="#F58A07"/>
<path d="M8.99277 60.6165C9.09439 61.4631 8.94196 62.1603 8.6371 62.8077C8.33223 63.4552 7.87494 63.9532 7.21441 64.3018C6.60468 64.7002 5.84253 64.8994 4.92794 64.999C4.06416 65.0986 3.2512 64.999 2.59067 64.7002C1.87932 64.4512 1.32041 64.0528 0.913924 63.505C0.507441 62.9572 0.25339 62.3097 0.151769 61.5129C0.100959 61.0149 0.151769 60.5667 0.25339 60.1185C0.35501 59.6702 0.609062 59.222 0.913924 58.8734C1.21879 58.475 1.62527 58.1762 2.18418 57.9272C2.69229 57.6782 3.35282 57.5288 4.11498 57.4292L4.7247 57.3794L5.33442 64.0528L4.06417 64.1524L3.60687 59.0726C3.14958 59.1224 2.79391 59.222 2.48904 59.4212C2.18418 59.6205 1.93013 59.9193 1.7777 60.2181C1.62527 60.5169 1.52365 60.9153 1.57446 61.3635C1.62527 61.8117 1.7777 62.2101 2.03175 62.5089C2.2858 62.8077 2.59067 63.0568 2.99715 63.2062C3.40363 63.3556 3.81011 63.4054 4.2166 63.3556L5.18199 63.256C5.74091 63.2062 6.24901 63.0568 6.60468 62.8077C6.96035 62.5587 7.26522 62.2599 7.46846 61.9113C7.62089 61.5129 7.72251 61.1145 7.6717 60.6165C7.62089 60.3177 7.57008 60.0189 7.46846 59.7699C7.36684 59.5208 7.21441 59.3216 7.01116 59.1224C6.80792 58.973 6.55387 58.8236 6.29982 58.7738L6.45225 57.1802C6.90954 57.2798 7.36684 57.4292 7.72251 57.728C8.07818 58.0268 8.38304 58.3754 8.6371 58.8734C8.89115 59.3714 8.94196 60.0189 8.99277 60.6165Z" fill="#F58A07"/>
<path d="M3.65834 52.4977L8.73938 53.0953L8.53614 54.7388L0 53.7428L0.203241 52.1989L1.57512 52.3483V52.2487C1.16864 51.9997 0.812965 51.6511 0.609724 51.2029C0.406483 50.7547 0.304862 50.2068 0.406483 49.6092C0.457293 49.0614 0.660534 48.5634 0.965396 48.165C1.27026 47.7666 1.67674 47.4678 2.18484 47.3183C2.69295 47.1191 3.30267 47.0693 4.01402 47.1689L9.45072 47.8164L9.24748 49.4598L3.96321 48.7626C3.35348 48.7128 2.84538 48.8124 2.4389 49.0614C2.03241 49.3602 1.82917 49.7586 1.77836 50.3064C1.72755 50.7049 1.77836 51.0037 1.93079 51.3523C2.08322 51.6511 2.28647 51.9001 2.59133 52.1491C2.84538 52.2985 3.20105 52.4479 3.65834 52.4977Z" fill="#F58A07"/>
<path d="M11.3309 41.7908C11.0768 42.5378 10.6703 43.1852 10.1114 43.5836C9.5525 44.0319 8.89197 44.2809 8.18062 44.3805C7.46928 44.4801 6.65631 44.3805 5.84335 44.0817C5.03038 43.7828 4.31904 43.3844 3.81093 42.8864C3.30283 42.3884 2.94716 41.7908 2.79473 41.0936C2.6423 40.3963 2.69311 39.6991 2.94716 38.9521C3.1504 38.3545 3.45526 37.8564 3.86174 37.458C4.26823 37.0596 4.72552 36.7608 5.23362 36.6114C5.74173 36.462 6.30064 36.462 6.85955 36.5616L6.35145 38.0557C5.94497 38.0059 5.53848 38.1055 5.18281 38.3047C4.82714 38.5039 4.52228 38.8525 4.36985 39.3505C4.21742 39.7987 4.21742 40.1971 4.31904 40.5955C4.42066 40.994 4.67471 41.3426 5.03038 41.6912C5.38605 42.0398 5.84335 42.2888 6.45307 42.488C7.0628 42.6872 7.5709 42.7868 8.079 42.737C8.5871 42.6872 8.99359 42.5876 9.34926 42.3386C9.70493 42.0896 9.95898 41.741 10.1114 41.2928C10.213 40.994 10.2638 40.6951 10.213 40.4461C10.1622 40.1473 10.1114 39.8983 9.95898 39.6991C9.80655 39.4999 9.60331 39.2509 9.34926 39.1015L9.85736 37.6074C10.3655 37.8564 10.7719 38.1553 11.0768 38.6035C11.3817 39.0019 11.5849 39.4999 11.6357 40.0477C11.6357 40.5955 11.5849 41.1932 11.3309 41.7908Z" fill="#F58A07"/>
<path d="M16.6655 37.16C16.5131 37.3592 16.4115 37.5584 16.259 37.7078C16.1066 37.8572 16.005 37.9568 15.9034 38.0564L14.938 37.0106C15.1412 36.8114 15.3445 36.5623 15.4461 36.3631C15.5477 36.1639 15.5985 35.9149 15.5477 35.7157C15.4969 35.4667 15.3445 35.2177 15.0904 34.8691L14.6839 34.4209L5.58887 32.7276L6.50345 31.2336L13.3629 32.7276L13.4137 32.628L8.78992 27.4486L9.70451 25.9546L16.259 33.7735C16.5639 34.1221 16.7671 34.5205 16.9196 34.8691C17.072 35.2177 17.1228 35.6161 17.072 35.9647C17.0212 36.3133 16.8688 36.7616 16.6655 37.16Z" fill="#F58A07"/>
<path d="M21.5946 24.9583L20.7816 24.0121L21.0357 18.5339C21.0357 17.9363 21.0865 17.4383 21.0357 17.0399C21.0357 16.6414 20.9849 16.243 20.8833 15.9442C20.7816 15.6454 20.6292 15.3466 20.426 15.0976C20.1719 14.7988 19.8671 14.6494 19.5622 14.5498C19.2573 14.4502 18.9017 14.4502 18.5968 14.5498C18.2919 14.6494 17.9363 14.7988 17.6822 15.0478C17.3774 15.2968 17.1741 15.5956 17.0217 15.9442C16.9201 16.243 16.8693 16.5916 16.9709 16.9403C17.0725 17.2889 17.2249 17.5877 17.479 17.8865L16.2595 18.9821C15.8022 18.4841 15.4974 17.9363 15.3957 17.3387C15.2941 16.741 15.3449 16.1434 15.599 15.5956C15.853 14.998 16.2087 14.5 16.7676 14.0518C17.3265 13.6035 17.8855 13.3047 18.4952 13.1553C19.1049 13.0059 19.6638 13.0059 20.2227 13.2051C20.7816 13.3545 21.2389 13.6533 21.6454 14.1514C21.9503 14.4502 22.1535 14.7988 22.306 15.247C22.4584 15.6454 22.56 16.1434 22.56 16.7908C22.56 17.4383 22.56 18.1853 22.5092 19.1813L22.3568 22.269L22.4076 22.3188L26.2692 18.9821L27.2346 20.0778L21.5946 24.9583Z" fill="#F58A07"/>
<path d="M33.0268 16.9404C32.2647 17.3388 31.4517 17.4882 30.6895 17.3886C29.9274 17.289 29.1652 16.9404 28.4539 16.293C27.7425 15.6953 27.082 14.8487 26.5231 13.7531C25.9134 12.6574 25.5577 11.7112 25.4561 10.765C25.3545 9.86853 25.4561 9.07171 25.7609 8.37448C26.1166 7.67726 26.6247 7.12944 27.4377 6.73103C28.1998 6.33261 28.962 6.18321 29.775 6.28281C30.5879 6.38241 31.2993 6.73103 32.0106 7.32865C32.722 7.92627 33.3825 8.7729 33.9414 9.81873C34.5511 10.9144 34.9068 11.9104 35.0084 12.8068C35.1609 13.7033 35.0592 14.5499 34.7036 15.1973C34.3479 15.9443 33.789 16.4922 33.0268 16.9404ZM32.3155 15.6455C32.976 15.2969 33.3317 14.6993 33.3825 13.8029C33.4333 12.9562 33.0776 11.9104 32.4171 10.6654C31.9598 9.86853 31.5025 9.22111 30.9944 8.72309C30.4863 8.22508 30.029 7.92627 29.5209 7.82666C29.0128 7.72706 28.5555 7.77686 28.0982 8.02587C27.4377 8.37448 27.082 8.9721 27.0312 9.86853C26.9804 10.7152 27.3361 11.761 27.9966 13.006C28.4539 13.8527 28.9112 14.5001 29.4193 14.9483C29.9274 15.4463 30.3847 15.6953 30.8928 15.8447C31.3501 15.9443 31.8582 15.8945 32.3155 15.6455Z" fill="#F58A07"/>
<path d="M38.9213 13.9519L38.5656 12.7567L41.2077 7.9259C41.5126 7.42789 41.7158 6.92987 41.8683 6.58126C42.0207 6.18285 42.1731 5.83423 42.2239 5.53542C42.2747 5.23661 42.2747 4.888 42.1731 4.58919C42.0715 4.24058 41.9191 3.94177 41.665 3.74256C41.411 3.54336 41.1061 3.39395 40.8012 3.34415C40.4456 3.29435 40.0899 3.29435 39.7342 3.39395C39.3277 3.49355 39.0229 3.69276 38.7688 3.89197C38.5148 4.14098 38.3623 4.43979 38.2607 4.7386C38.1591 5.03741 38.2099 5.43582 38.3115 5.83423L36.7364 6.28245C36.5332 5.63503 36.5332 4.9876 36.7364 4.43979C36.8888 3.84217 37.2445 3.34415 37.7018 2.94574C38.1591 2.54732 38.718 2.24851 39.4294 2.04931C40.1407 1.8501 40.7504 1.8501 41.3602 1.9497C41.9699 2.04931 42.478 2.34812 42.9353 2.69673C43.3418 3.09514 43.6466 3.54336 43.8499 4.14098C43.9515 4.53939 44.0023 4.9378 43.9515 5.38602C43.9007 5.83423 43.7482 6.33225 43.4942 6.88007C43.2401 7.42789 42.8845 8.17491 42.4272 9.02154L40.8521 11.8602V11.9598L45.8315 10.6152L46.238 12.0096L38.9213 13.9519Z" fill="#F58A07"/>
<path d="M52.7416 11.5615C51.8778 11.6113 51.1157 11.4121 50.4551 10.9638C49.7946 10.5156 49.2865 9.918 48.9308 9.07137C48.5752 8.22475 48.3719 7.17891 48.2703 5.98367C48.2195 4.78843 48.3211 3.7426 48.626 2.84617C48.9308 1.94974 49.3881 1.30231 49.9978 0.804297C50.6076 0.30628 51.3697 0.0572719 52.2335 0.00747025C53.0973 -0.0423314 53.8594 0.156875 54.52 0.60509C55.1805 1.05331 55.6886 1.65093 56.0443 2.49755C56.3999 3.34418 56.654 4.39002 56.7048 5.58526C56.7556 6.8303 56.654 7.87613 56.3491 8.72276C56.0443 9.56939 55.587 10.2666 55.0281 10.7646C54.3675 11.2626 53.6562 11.5117 52.7416 11.5615ZM52.6908 10.1172C53.4529 10.0674 54.0627 9.66899 54.4691 8.92197C54.8756 8.17494 55.0281 7.07931 54.9773 5.68486C54.9264 4.73863 54.774 3.9916 54.5708 3.34418C54.3675 2.69676 54.0119 2.24855 53.6562 1.89993C53.2497 1.60112 52.8432 1.45172 52.3351 1.45172C51.573 1.50152 50.9632 1.89993 50.5568 2.64696C50.1503 3.39398 49.9978 4.48962 50.0487 5.88407C50.0995 6.8303 50.2519 7.62713 50.4551 8.22475C50.6584 8.82237 51.014 9.32038 51.3697 9.66899C51.7254 10.0176 52.1827 10.1172 52.6908 10.1172Z" fill="#F58A07"/>
<path d="M70.9318 7.37834L70.5761 8.77279L65.6475 7.47794L66.0031 6.0835L70.9318 7.37834Z" fill="#F58A07"/>
<path d="M76.4189 16.3918L77.0795 15.346L82.5162 14.0512C83.0751 13.9017 83.5832 13.7523 83.9897 13.6527C84.3962 13.5531 84.7519 13.3539 85.0059 13.2045C85.26 13.0551 85.514 12.8061 85.6664 12.5073C85.8697 12.2085 85.9713 11.8599 85.9713 11.5611C85.9713 11.2125 85.8697 10.9136 85.7173 10.6646C85.514 10.3658 85.26 10.1168 84.9551 9.91762C84.5994 9.71841 84.2438 9.569 83.8881 9.569C83.5324 9.569 83.2275 9.61881 82.9227 9.76821C82.6178 9.91762 82.3638 10.1666 82.1605 10.5152L80.7886 9.66861C81.1443 9.07099 81.6016 8.67257 82.1605 8.42357C82.7194 8.17456 83.2784 8.07495 83.9389 8.12476C84.5486 8.17456 85.1583 8.37376 85.7681 8.77218C86.3778 9.17059 86.8351 9.61881 87.1399 10.1168C87.4448 10.6646 87.5972 11.2125 87.5972 11.7603C87.5972 12.3081 87.4448 12.8559 87.0891 13.3539C86.8859 13.7025 86.581 14.0014 86.2254 14.2504C85.8697 14.4994 85.4124 14.7484 84.8027 14.9476C84.1929 15.1468 83.4308 15.346 82.4654 15.595L79.2643 16.3918L79.2135 16.4416L83.5832 19.1309L82.7702 20.376L76.4189 16.3918Z" fill="#F58A07"/>
<path d="M87.4953 24.8088C86.8856 24.2112 86.5299 23.514 86.3775 22.7669C86.2759 22.0199 86.3775 21.2231 86.784 20.3765C87.1904 19.5298 87.8002 18.6832 88.7148 17.8366C89.5785 16.9899 90.4423 16.3425 91.3061 15.9939C92.1699 15.5955 92.9828 15.4959 93.745 15.5955C94.5071 15.6951 95.2185 16.0935 95.8282 16.6911C96.4379 17.2888 96.7936 17.986 96.946 18.733C97.0476 19.48 96.946 20.2769 96.5395 21.1235C96.1331 21.9701 95.5233 22.8167 94.6596 23.6634C93.7958 24.51 92.8812 25.1574 92.0682 25.506C91.2045 25.9044 90.3915 26.004 89.6293 25.9044C88.8164 25.8048 88.105 25.4064 87.4953 24.8088ZM88.5623 23.763C89.1212 24.3108 89.7818 24.4602 90.6455 24.261C91.5093 24.0618 92.4239 23.4144 93.4401 22.4681C94.1006 21.8207 94.6087 21.1733 94.9644 20.5757C95.2693 19.978 95.4217 19.4302 95.4217 18.9322C95.4217 18.4342 95.2185 18.0358 94.8628 17.6374C94.3039 17.0895 93.6434 16.9401 92.7796 17.1393C91.9158 17.3386 91.0012 17.986 89.985 18.9322C89.3245 19.5796 88.8164 20.2271 88.4607 20.8247C88.1558 21.4223 88.0034 21.9701 88.0034 22.4681C88.0034 23.0159 88.2066 23.4144 88.5623 23.763Z" fill="#F58A07"/>
<path d="M92.0684 29.5393L93.1354 28.8918L98.5721 30.0373C99.1818 30.1369 99.6899 30.2365 100.096 30.2863C100.503 30.3361 100.909 30.3361 101.214 30.2863C101.519 30.2365 101.824 30.1369 102.129 29.9377C102.434 29.7385 102.688 29.4895 102.84 29.1906C102.993 28.8918 103.043 28.593 102.993 28.2444C102.942 27.8958 102.84 27.597 102.637 27.2484C102.434 26.8998 102.18 26.6508 101.875 26.5014C101.57 26.352 101.265 26.2523 100.909 26.3021C100.554 26.3021 100.198 26.4516 99.8931 26.6508L99.0294 25.2563C99.6391 24.9077 100.198 24.7085 100.859 24.7085C101.519 24.7085 102.027 24.8579 102.586 25.1567C103.145 25.4555 103.602 25.9037 103.958 26.5014C104.364 27.099 104.568 27.6966 104.618 28.2942C104.669 28.8918 104.568 29.4397 104.314 29.9875C104.06 30.5353 103.653 30.9337 103.145 31.2325C102.789 31.4317 102.383 31.5811 101.976 31.6807C101.57 31.7803 101.011 31.7803 100.401 31.6807C99.7915 31.6309 98.9785 31.4815 98.0132 31.2823L94.7613 30.6349L94.7105 30.6847L97.4542 34.9676L96.184 35.7147L92.0684 29.5393Z" fill="#F58A07"/>
<path d="M109.446 38.2049L98.725 42.189L98.1152 40.5953L107.21 37.2088V37.159L104.568 35.2666L106.092 34.6689L108.836 36.661L109.446 38.2049Z" fill="#F58A07"/>
<path d="M116 51.2533L97.2511 53.1458L97.0986 51.7015L115.848 49.8091L116 51.2533Z" fill="#F58A07"/>
<path d="M112.037 64.3016L100.655 62.9569L100.859 61.3135L112.24 62.6581L112.037 64.3016Z" fill="#F58A07"/>
<path d="M99.1309 69.1322C99.3342 68.3852 99.7407 67.7378 100.249 67.2896C100.757 66.8413 101.417 66.5425 102.129 66.3931C102.84 66.2437 103.653 66.2935 104.517 66.5425C105.381 66.7915 106.092 67.1401 106.651 67.6382C107.21 68.1362 107.565 68.7338 107.769 69.3812C107.972 70.0286 107.921 70.7757 107.718 71.5227C107.515 72.2697 107.108 72.9171 106.6 73.3654C106.092 73.8136 105.431 74.1124 104.72 74.2618C104.009 74.4112 103.196 74.3614 102.332 74.1124C101.468 73.8634 100.757 73.5148 100.249 73.0168C99.6899 72.5187 99.3342 71.9211 99.1309 71.2737C98.9277 70.6263 98.9277 69.8792 99.1309 69.1322ZM100.503 69.5306C100.35 70.0286 100.35 70.4769 100.554 70.8753C100.757 71.2737 101.011 71.6223 101.417 71.8713C101.824 72.1701 102.281 72.3693 102.789 72.5187C103.297 72.6681 103.805 72.7179 104.314 72.7179C104.822 72.6681 105.228 72.5685 105.584 72.3195C105.94 72.0705 106.194 71.7219 106.346 71.2239C106.498 70.7259 106.498 70.2777 106.295 69.8792C106.143 69.4808 105.838 69.1322 105.431 68.8334C105.025 68.5346 104.568 68.3354 104.06 68.186C103.551 68.0366 103.043 67.9868 102.535 67.9868C102.027 68.0366 101.621 68.1362 101.265 68.435C100.909 68.684 100.655 69.0326 100.503 69.5306Z" fill="#F58A07"/>
<path d="M100.96 78.8933L96.4888 76.5028L97.3018 75.0586L104.872 79.0427L104.11 80.4372L102.891 79.7898L102.84 79.8894C103.145 80.2878 103.297 80.6862 103.348 81.1842C103.399 81.6822 103.247 82.1802 102.942 82.7779C102.688 83.2759 102.332 83.6743 101.875 83.9233C101.468 84.1723 100.96 84.3217 100.452 84.3217C99.8931 84.3217 99.3342 84.1225 98.7244 83.8237L93.8975 81.2838L94.7104 79.8396L99.3342 82.2798C99.8931 82.5787 100.401 82.6783 100.858 82.5289C101.316 82.4293 101.671 82.1304 101.976 81.6324C102.18 81.2838 102.23 80.985 102.23 80.6364C102.23 80.2878 102.129 79.989 101.926 79.6902C101.671 79.3913 101.367 79.1423 100.96 78.8933Z" fill="#F58A07"/>
<path d="M90.0865 85.7656C90.5438 85.2676 91.1027 84.919 91.7125 84.7198C92.3222 84.5704 92.9827 84.5704 93.6941 84.7696C94.4054 84.9688 95.1168 85.3672 95.7773 85.9648C96.4378 86.5624 96.9967 87.2099 97.2508 87.8573C97.5557 88.5047 97.6573 89.1521 97.5557 89.7995C97.454 90.447 97.2 90.9948 96.7427 91.4928C96.387 91.8912 96.0313 92.1402 95.6757 92.2896C95.32 92.439 95.0151 92.4888 94.7103 92.439C94.4054 92.439 94.1514 92.3892 93.9481 92.3394L93.8973 92.3892L97.0984 95.1283L95.9805 96.3734L87.3428 89.0027L88.4098 87.8075L89.426 88.6541L89.5276 88.5545C89.4768 88.3553 89.3752 88.1063 89.3244 87.8075C89.2736 87.5087 89.2736 87.2099 89.3752 86.8612C89.4768 86.5126 89.7309 86.164 90.0865 85.7656ZM90.8995 86.9609C90.5946 87.3095 90.3914 87.7079 90.3914 88.1063C90.3914 88.5047 90.493 88.9529 90.6963 89.3513C90.9503 89.7497 91.2552 90.198 91.7125 90.5466C92.1698 90.945 92.6271 91.194 93.0843 91.3434C93.5416 91.4928 93.9481 91.5426 94.3546 91.443C94.7611 91.3434 95.1168 91.1442 95.4216 90.7956C95.7265 90.447 95.9297 90.0485 95.9297 89.6003C95.9297 89.2019 95.8281 88.7537 95.6249 88.3553C95.3708 87.9569 95.066 87.5585 94.6595 87.2099C94.2022 86.8612 93.7957 86.5624 93.3384 86.413C92.8811 86.2636 92.4238 86.2138 92.0173 86.2636C91.6108 86.3632 91.2552 86.6122 90.8995 86.9609Z" fill="#F58A07"/>
<path d="M82.3126 92.9378C82.9732 92.4895 83.6337 92.1907 84.3451 92.1409C85.0564 92.0911 85.7169 92.1907 86.3775 92.5393C87.038 92.888 87.6477 93.386 88.1558 94.0832C88.6639 94.7804 89.0196 95.4776 89.172 96.2247C89.3245 96.9219 89.2229 97.6191 88.9688 98.2665C88.7148 98.9139 88.2575 99.4618 87.5969 99.9598C86.9364 100.408 86.2759 100.707 85.5645 100.757C84.8532 100.806 84.1926 100.657 83.5321 100.358C82.8716 100.01 82.2618 99.5116 81.7537 98.8143C81.2456 98.1171 80.8899 97.4199 80.7883 96.6729C80.6867 95.9259 80.7375 95.2784 80.9916 94.631C81.1948 93.9338 81.6521 93.386 82.3126 92.9378ZM83.1256 94.0334C82.7191 94.3322 82.4651 94.6808 82.3126 95.129C82.1602 95.5772 82.211 95.9757 82.3635 96.4239C82.5159 96.8721 82.7191 97.3203 83.0748 97.7685C83.3797 98.2167 83.7861 98.5653 84.1926 98.8143C84.5991 99.0633 85.0056 99.2128 85.4629 99.2626C85.9202 99.3124 86.3267 99.163 86.7331 98.8143C87.1396 98.5155 87.4445 98.1669 87.5461 97.7187C87.6477 97.2705 87.6477 96.8721 87.4953 96.3741C87.3429 95.9259 87.1396 95.4776 86.784 95.0294C86.4791 94.5812 86.0726 94.2326 85.6661 93.9836C85.2596 93.7346 84.8532 93.5852 84.3959 93.5852C83.9894 93.5852 83.5829 93.7346 83.1256 94.0334Z" fill="#F58A07"/>
<path d="M77.6886 101.753L75.6054 97.1709L77.1297 96.4736L80.6864 104.143L79.2129 104.79L78.654 103.545L78.5524 103.595C78.5524 104.093 78.4508 104.541 78.1459 104.94C77.8919 105.338 77.4346 105.687 76.8756 105.936C76.3167 106.185 75.8086 106.285 75.3005 106.235C74.7924 106.185 74.3351 105.986 73.9286 105.687C73.5222 105.388 73.1665 104.89 72.8616 104.243L70.626 99.3621L72.1503 98.6649L74.3351 103.346C74.5892 103.894 74.9449 104.292 75.4021 104.442C75.8594 104.641 76.3167 104.591 76.8248 104.392C77.1805 104.243 77.4346 104.043 77.6378 103.745C77.841 103.496 77.9427 103.147 77.9935 102.798C77.9935 102.549 77.8919 102.201 77.6886 101.753Z" fill="#F58A07"/>
</svg>
